ffmpeg started on 2016-11-25 at 00:49:39
Report written to "Output/NVENCh264/results/ffmpeg/Told_town_cross_2160p50hq2500k.log"
Command line:
Tools/ffmpeg/ffmpeg -i Output/NVENCh264/encoded/old_town_cross_2160p50hq2500k.mkv -c:v rawvideo -pix_fmt yuv420p Output/NVENCh264/transcoded/old_town_cross_2160p50hq2500k.yuv
ffmpeg version N-82227-gdb23fde Copyright (c) 2000-2016 the FFmpeg developers
  built with gcc 5.4.0 (Ubuntu 5.4.0-6ubuntu1~16.04.2) 20160609
  configuration: --prefix=/home/jaroslav/ffmpeg_build --pkg-config-flags=--static --extra-cflags=-I/home/jaroslav/ffmpeg_build/include --extra-ldflags=-L/home/jaroslav/ffmpeg_build/lib --bindir=/home/jaroslav/bin --enable-gpl --enable-libass --enable-libfdk-aac --enable-libfreetype --enable-libmp3lame --enable-libopus --enable-libtheora --enable-libvorbis --enable-libvpx --enable-libx264 --enable-libx265 --enable-nvenc --enable-libmfx --enable-libxvid --enable-libgsm --enable-libopencore-amrnb --enable-version3 --enable-nonfree
  libavutil      55. 35.100 / 55. 35.100
  libavcodec     57. 66.101 / 57. 66.101
  libavformat    57. 57.100 / 57. 57.100
  libavdevice    57.  2.100 / 57.  2.100
  libavfilter     6. 66.100 /  6. 66.100
  libswscale      4.  3.100 /  4.  3.100
  libswresample   2.  4.100 /  2.  4.100
  libpostproc    54.  2.100 / 54.  2.100
Input #0, matroska,webm, from 'Output/NVENCh264/encoded/old_town_cross_2160p50hq2500k.mkv':
  Metadata:
    ENCODER         : Lavf57.57.100
  Duration: 00:00:10.00, start: 0.000000, bitrate: 2194 kb/s
    Stream #0:0: Video: h264 (Main), yuv420p(progressive), 3840x2160 [SAR 1:1 DAR 16:9], 50 fps, 50 tbr, 1k tbn, 100 tbc (default)
    Metadata:
      ENCODER         : Lavc57.66.101 h264_nvenc
      DURATION        : 00:00:10.000000000
Output #0, rawvideo, to 'Output/NVENCh264/transcoded/old_town_cross_2160p50hq2500k.yuv':
  Metadata:
    encoder         : Lavf57.57.100
    Stream #0:0: Video: rawvideo (I420 / 0x30323449), yuv420p, 3840x2160 [SAR 1:1 DAR 16:9], q=2-31, 200 kb/s, 50 fps, 50 tbn, 50 tbc (default)
    Metadata:
      DURATION        : 00:00:10.000000000
      encoder         : Lavc57.66.101 rawvideo
Stream mapping:
  Stream #0:0 -> #0:0 (h264 (native) -> rawvideo (native))
Press [q] to stop, [?] for help
frame=   17 fps=0.0 q=-0.0 size=  206550kB time=00:00:00.34 bitrate=4976640.0kbits/s speed=0.641x    frame=   34 fps= 32 q=-0.0 size=  413100kB time=00:00:00.68 bitrate=4976640.0kbits/s speed=0.646x    frame=   51 fps= 32 q=-0.0 size=  619650kB time=00:00:01.02 bitrate=4976640.0kbits/s speed=0.644x    frame=   68 fps= 32 q=-0.0 size=  826200kB time=00:00:01.36 bitrate=4976640.0kbits/s speed=0.647x    frame=   85 fps= 32 q=-0.0 size= 1032750kB time=00:00:01.70 bitrate=4976640.0kbits/s speed=0.648x    frame=  102 fps= 32 q=-0.0 size= 1239300kB time=00:00:02.04 bitrate=4976640.0kbits/s speed=0.65x    frame=  119 fps= 32 q=-0.0 size= 1445850kB time=00:00:02.38 bitrate=4976640.0kbits/s speed=0.65x    frame=  134 fps= 32 q=-0.0 size= 1628100kB time=00:00:02.68 bitrate=4976640.0kbits/s speed=0.641x    frame=  151 fps= 32 q=-0.0 size= 1834650kB time=00:00:03.02 bitrate=4976640.0kbits/s speed=0.642x    frame=  168 fps= 32 q=-0.0 size= 2041200kB time=00:00:03.36 bitrate=4976640.0kbits/s speed=0.643x    frame=  185 fps= 32 q=-0.0 size= 2247750kB time=00:00:03.70 bitrate=4976640.0kbits/s speed=0.644x    frame=  202 fps= 32 q=-0.0 size= 2454300kB time=00:00:04.04 bitrate=4976640.0kbits/s speed=0.645x    frame=  219 fps= 32 q=-0.0 size= 2660850kB time=00:00:04.38 bitrate=4976640.0kbits/s speed=0.646x    frame=  236 fps= 32 q=-0.0 size= 2867400kB time=00:00:04.72 bitrate=4976640.0kbits/s speed=0.647x    frame=  252 fps= 32 q=-0.0 size= 3061800kB time=00:00:05.04 bitrate=4976640.0kbits/s speed=0.647x    frame=  268 fps= 32 q=-0.0 size= 3256200kB time=00:00:05.36 bitrate=4976640.0kbits/s speed=0.646x    frame=  284 fps= 32 q=-0.0 size= 3450600kB time=00:00:05.68 bitrate=4976640.0kbits/s speed=0.645x    frame=  296 fps= 32 q=-0.0 size= 3596400kB time=00:00:05.92 bitrate=4976640.0kbits/s speed=0.634x    frame=  312 fps= 32 q=-0.0 size= 3790800kB time=00:00:06.24 bitrate=4976640.0kbits/s speed=0.634x    frame=  325 fps= 31 q=-0.0 size= 3948750kB time=00:00:06.50 bitrate=4976640.0kbits/s speed=0.628x    frame=  340 fps= 31 q=-0.0 size= 4131000kB time=00:00:06.80 bitrate=4976640.0kbits/s speed=0.626x    frame=  356 fps= 31 q=-0.0 size= 4325400kB time=00:00:07.12 bitrate=4976640.0kbits/s speed=0.626x    frame=  372 fps= 31 q=-0.0 size= 4519800kB time=00:00:07.44 bitrate=4976640.0kbits/s speed=0.626x    frame=  388 fps= 31 q=-0.0 size= 4714200kB time=00:00:07.76 bitrate=4976640.0kbits/s speed=0.627x    frame=  404 fps= 31 q=-0.0 size= 4908600kB time=00:00:08.08 bitrate=4976640.0kbits/s speed=0.627x    frame=  420 fps= 31 q=-0.0 size= 5103000kB time=00:00:08.40 bitrate=4976640.0kbits/s speed=0.627x    frame=  436 fps= 31 q=-0.0 size= 5297400kB time=00:00:08.72 bitrate=4976640.0kbits/s speed=0.627x    frame=  447 fps= 31 q=-0.0 size= 5431050kB time=00:00:08.94 bitrate=4976640.0kbits/s speed=0.619x    frame=  463 fps= 31 q=-0.0 size= 5625450kB time=00:00:09.26 bitrate=4976640.0kbits/s speed=0.62x    frame=  479 fps= 31 q=-0.0 size= 5819850kB time=00:00:09.58 bitrate=4976640.0kbits/s speed=0.62x    frame=  495 fps= 31 q=-0.0 size= 6014250kB time=00:00:09.90 bitrate=4976640.0kbits/s speed=0.621x    frame=  500 fps= 31 q=-0.0 Lsize= 6075000kB time=00:00:10.00 bitrate=4976640.0kbits/s speed=0.62x    
video:6075000kB audio:0kB subtitle:0kB other streams:0kB global headers:0kB muxing overhead: 0.000000%
